# xmcd CD database file
#
# Track frame offsets:
#	150
#	13706
#	24744
#	36165
#	45489
#	75392
#	85401
#	101672
#	116651
#	138177
#	153128
#	166722
#	179600
#	198098
#	207057
#	221053
#	234001
#	244352
#	255493
#	269974
#
# Disc length: 3802 seconds
#
# Revision: 2
# Processed by: cddbd v1.5.1PL2 Copyright (c) Steve Scherf et al.
# Submitted via: CDex 1.51
#
DISCID=080ed814
DTITLE=Various Artist - Country Hits 1
DYEAR=1900
DGENRE=Country
TTITLE0=Willie Nelson - No Tomorrow In Sight
TTITLE1=Waylon Jennings - Dream Baby
TTITLE2=Wanda Jackson - In The Middle Of A Heartache
TTITLE3=Frankie Laine - Rawhide
TTITLE4=Fifth Dimension - Ode To Billy Joe
TTITLE5=Johnny Cash - Rock Island Line
TTITLE6=Lynn Anderson - The Devil Went Down To Georgia
TTITLE7=Bellamy Brothers - Lovers Live Longer
TTITLE8=Phil Carmen - Borderline Down
TTITLE9=Kingston Trio - Tom Dooley
TTITLE10=Jimmy Dean - Big Bad John
TTITLE11=Cash, Johnny Cash - Folsom Prison Blues
TTITLE12=Carmen and Thompson - The Sun Goes Down
TTITLE13=Mac Davis - Why Can't I Be Like The Others
TTITLE14=Willie Nelson - Home Is Where You're Happy
TTITLE15=Lynn Anderson - Rose Garden
TTITLE16=Jimmie Rodgers - Oh-O I'm Falling In Love Again
TTITLE17=Loretta Lynn - Hey Loretta
TTITLE18=Bellamy Brothers - If I Said You Had A Beautiful Body
TTITLE19=Merle Haggard - Mule Skinner Blues
EXTD=
EXTT0=
EXTT1=
EXTT2=
EXTT3=
EXTT4=
EXTT5=
EXTT6=
EXTT7=
EXTT8=
EXTT9=
EXTT10=
EXTT11=
EXTT12=
EXTT13=
EXTT14=
EXTT15=
EXTT16=
EXTT17=
EXTT18=
EXTT19=
PLAYORDER=
